<svg width="26" height="24" viewBox="0 0 26 24" fill="none" xmlns="http://www.w3.org/2000/svg">
<rect x="0.5" y="0.5" width="25" height="23" rx="3.5" fill="#F5F5F5"/>
<path d="M5.552 14.176V13.144L9.584 7.36H11.24V12.988H12.356V14.176H11.24V16H9.896V14.176H5.552ZM9.956 8.752L7.124 12.988H9.956V8.752ZM13.3695 11.512C13.3695 10.128 13.6015 9.048 14.0655 8.272C14.5375 7.488 15.3455 7.096 16.4895 7.096C17.6335 7.096 18.4375 7.488 18.9015 8.272C19.3735 9.048 19.6095 10.128 19.6095 11.512C19.6095 12.912 19.3735 14.008 18.9015 14.8C18.4375 15.584 17.6335 15.976 16.4895 15.976C15.3455 15.976 14.5375 15.584 14.0655 14.8C13.6015 14.008 13.3695 12.912 13.3695 11.512ZM18.2655 11.512C18.2655 10.864 18.2215 10.316 18.1335 9.868C18.0535 9.42 17.8855 9.056 17.6295 8.776C17.3735 8.488 16.9935 8.344 16.4895 8.344C15.9855 8.344 15.6055 8.488 15.3495 8.776C15.0935 9.056 14.9215 9.42 14.8335 9.868C14.7535 10.316 14.7135 10.864 14.7135 11.512C14.7135 12.184 14.7535 12.748 14.8335 13.204C14.9135 13.66 15.0815 14.028 15.3375 14.308C15.6015 14.588 15.9855 14.728 16.4895 14.728C16.9935 14.728 17.3735 14.588 17.6295 14.308C17.8935 14.028 18.0655 13.66 18.1455 13.204C18.2255 12.748 18.2655 12.184 18.2655 11.512Z" fill="#404B52"/>
<rect x="0.5" y="0.5" width="25" height="23" rx="3.5" stroke="#EEEEEE"/>
</svg>
