<svg width="80" height="29" viewBox="0 0 80 29" fill="none" xmlns="http://www.w3.org/2000/svg">
<rect x="0.5" y="0.5" width="79" height="28" rx="3.5" fill="#FFC5C5"/>
<path d="M14.646 9.27V19H13.05V9.27H14.646ZM20.4934 11.16C21.1001 11.16 21.6414 11.286 22.1174 11.538C22.6027 11.79 22.9807 12.1633 23.2514 12.658C23.5221 13.1527 23.6574 13.75 23.6574 14.45V19H22.0754V14.688C22.0754 13.9973 21.9027 13.47 21.5574 13.106C21.2121 12.7327 20.7407 12.546 20.1434 12.546C19.5461 12.546 19.0701 12.7327 18.7154 13.106C18.3701 13.47 18.1974 13.9973 18.1974 14.688V19H16.6014V11.286H18.1974V12.168C18.4587 11.8507 18.7901 11.6033 19.1914 11.426C19.6021 11.2487 20.0361 11.16 20.4934 11.16ZM25.0212 15.108C25.0212 14.3333 25.1799 13.6473 25.4972 13.05C25.8239 12.4527 26.2625 11.9907 26.8132 11.664C27.3732 11.328 27.9892 11.16 28.6612 11.16C29.2679 11.16 29.7952 11.2813 30.2432 11.524C30.7005 11.7573 31.0645 12.0513 31.3352 12.406V11.286H32.9452V19H31.3352V17.852C31.0645 18.216 30.6959 18.5193 30.2292 18.762C29.7625 19.0047 29.2305 19.126 28.6332 19.126C27.9705 19.126 27.3639 18.958 26.8132 18.622C26.2625 18.2767 25.8239 17.8007 25.4972 17.194C25.1799 16.578 25.0212 15.8827 25.0212 15.108ZM31.3352 15.136C31.3352 14.604 31.2232 14.142 30.9992 13.75C30.7845 13.358 30.4999 13.0593 30.1452 12.854C29.7905 12.6487 29.4079 12.546 28.9972 12.546C28.5865 12.546 28.2039 12.6487 27.8492 12.854C27.4945 13.05 27.2052 13.344 26.9812 13.736C26.7665 14.1187 26.6592 14.576 26.6592 15.108C26.6592 15.64 26.7665 16.1067 26.9812 16.508C27.2052 16.9093 27.4945 17.2173 27.8492 17.432C28.2132 17.6373 28.5959 17.74 28.9972 17.74C29.4079 17.74 29.7905 17.6373 30.1452 17.432C30.4999 17.2267 30.7845 16.928 30.9992 16.536C31.2232 16.1347 31.3352 15.668 31.3352 15.136ZM34.3695 15.136C34.3695 14.3427 34.5282 13.6473 34.8455 13.05C35.1722 12.4433 35.6202 11.9767 36.1895 11.65C36.7588 11.3233 37.4122 11.16 38.1495 11.16C39.0828 11.16 39.8528 11.384 40.4595 11.832C41.0755 12.2707 41.4908 12.9007 41.7055 13.722H39.9835C39.8435 13.3393 39.6195 13.0407 39.3115 12.826C39.0035 12.6113 38.6162 12.504 38.1495 12.504C37.4962 12.504 36.9735 12.7373 36.5815 13.204C36.1988 13.6613 36.0075 14.3053 36.0075 15.136C36.0075 15.9667 36.1988 16.6153 36.5815 17.082C36.9735 17.5487 37.4962 17.782 38.1495 17.782C39.0735 17.782 39.6848 17.376 39.9835 16.564H41.7055C41.4815 17.348 41.0615 17.9733 40.4455 18.44C39.8295 18.8973 39.0642 19.126 38.1495 19.126C37.4122 19.126 36.7588 18.9627 36.1895 18.636C35.6202 18.3 35.1722 17.8333 34.8455 17.236C34.5282 16.6293 34.3695 15.9293 34.3695 15.136ZM45.018 12.588V16.858C45.018 17.1473 45.0833 17.3573 45.214 17.488C45.354 17.6093 45.5873 17.67 45.914 17.67H46.894V19H45.634C44.9153 19 44.3647 18.832 43.982 18.496C43.5993 18.16 43.408 17.614 43.408 16.858V12.588H42.498V11.286H43.408V9.368H45.018V11.286H46.894V12.588H45.018ZM49.037 10.264C48.7477 10.264 48.505 10.166 48.309 9.97C48.113 9.774 48.015 9.53133 48.015 9.242C48.015 8.95267 48.113 8.71 48.309 8.514C48.505 8.318 48.7477 8.22 49.037 8.22C49.317 8.22 49.555 8.318 49.751 8.514C49.947 8.71 50.045 8.95267 50.045 9.242C50.045 9.53133 49.947 9.774 49.751 9.97C49.555 10.166 49.317 10.264 49.037 10.264ZM49.821 11.286V19H48.225V11.286H49.821ZM54.7584 17.572L56.9424 11.286H58.6364L55.6964 19H53.7924L50.8664 11.286H52.5744L54.7584 17.572ZM66.7728 14.954C66.7728 15.2433 66.7541 15.5047 66.7168 15.738H60.8228C60.8695 16.354 61.0981 16.8487 61.5088 17.222C61.9195 17.5953 62.4235 17.782 63.0208 17.782C63.8795 17.782 64.4861 17.4227 64.8408 16.704H66.5628C66.3295 17.4133 65.9048 17.9967 65.2888 18.454C64.6821 18.902 63.9261 19.126 63.0208 19.126C62.2835 19.126 61.6208 18.9627 61.0328 18.636C60.4541 18.3 59.9968 17.8333 59.6608 17.236C59.3341 16.6293 59.1708 15.9293 59.1708 15.136C59.1708 14.3427 59.3295 13.6473 59.6468 13.05C59.9735 12.4433 60.4261 11.9767 61.0048 11.65C61.5928 11.3233 62.2648 11.16 63.0208 11.16C63.7488 11.16 64.3975 11.3187 64.9668 11.636C65.5361 11.9533 65.9795 12.4013 66.2968 12.98C66.6141 13.5493 66.7728 14.2073 66.7728 14.954ZM65.1068 14.45C65.0975 13.862 64.8875 13.3907 64.4768 13.036C64.0661 12.6813 63.5575 12.504 62.9508 12.504C62.4001 12.504 61.9288 12.6813 61.5368 13.036C61.1448 13.3813 60.9115 13.8527 60.8368 14.45H65.1068Z" fill="#DF0404"/>
<rect x="0.5" y="0.5" width="79" height="28" rx="3.5" stroke="#DF0404"/>
</svg>
