<svg width="25" height="24" viewBox="0 0 25 24" fill="none" xmlns="http://www.w3.org/2000/svg">
<rect x="0.5" y="0.5" width="24" height="23" rx="3.5" fill="#F5F5F5"/>
<path d="M10.476 14.14C11.244 13.476 11.848 12.932 12.288 12.508C12.736 12.076 13.108 11.628 13.404 11.164C13.7 10.7 13.848 10.236 13.848 9.772C13.848 9.292 13.732 8.916 13.5 8.644C13.276 8.372 12.92 8.236 12.432 8.236C11.96 8.236 11.592 8.388 11.328 8.692C11.072 8.988 10.936 9.388 10.92 9.892H9.6C9.624 8.98 9.896 8.284 10.416 7.804C10.944 7.316 11.612 7.072 12.42 7.072C13.292 7.072 13.972 7.312 14.46 7.792C14.956 8.272 15.204 8.912 15.204 9.712C15.204 10.288 15.056 10.844 14.76 11.38C14.472 11.908 14.124 12.384 13.716 12.808C13.316 13.224 12.804 13.708 12.18 14.26L11.64 14.74H15.444V15.88H9.612V14.884L10.476 14.14Z" fill="#404B52"/>
<rect x="0.5" y="0.5" width="24" height="23" rx="3.5" stroke="#EEEEEE"/>
</svg>
