<svg width="24" height="24" viewBox="0 0 24 24" fill="none" xmlns="http://www.w3.org/2000/svg">
<rect x="0.5" y="0.5" width="23" height="23" rx="3.5" fill="#F5F5F5"/>
<path d="M8.696 9.412C8.744 8.668 9.028 8.088 9.548 7.672C10.076 7.256 10.748 7.048 11.564 7.048C12.124 7.048 12.608 7.148 13.016 7.348C13.424 7.548 13.732 7.82 13.94 8.164C14.148 8.508 14.252 8.896 14.252 9.328C14.252 9.824 14.12 10.248 13.856 10.6C13.592 10.952 13.276 11.188 12.908 11.308V11.356C13.38 11.5 13.748 11.764 14.012 12.148C14.276 12.524 14.408 13.008 14.408 13.6C14.408 14.072 14.3 14.492 14.084 14.86C13.868 15.228 13.548 15.52 13.124 15.736C12.7 15.944 12.192 16.048 11.6 16.048C10.736 16.048 10.024 15.828 9.464 15.388C8.912 14.94 8.616 14.3 8.576 13.468H9.896C9.928 13.892 10.092 14.24 10.388 14.512C10.684 14.776 11.084 14.908 11.588 14.908C12.076 14.908 12.452 14.776 12.716 14.512C12.98 14.24 13.112 13.892 13.112 13.468C13.112 12.908 12.932 12.512 12.572 12.28C12.22 12.04 11.676 11.92 10.94 11.92H10.628V10.792H10.952C11.6 10.784 12.092 10.676 12.428 10.468C12.772 10.26 12.944 9.932 12.944 9.484C12.944 9.1 12.82 8.796 12.572 8.572C12.324 8.34 11.972 8.224 11.516 8.224C11.068 8.224 10.72 8.34 10.472 8.572C10.224 8.796 10.076 9.076 10.028 9.412H8.696Z" fill="#404B52"/>
<rect x="0.5" y="0.5" width="23" height="23" rx="3.5" stroke="#EEEEEE"/>
</svg>
