<svg width="8" height="3" viewBox="0 0 8 3" fill="none" xmlns="http://www.w3.org/2000/svg">
<path d="M1.452 2.084C1.204 2.084 0.996 2 0.828 1.832C0.66 1.664 0.576 1.456 0.576 1.208C0.576 0.96 0.66 0.752 0.828 0.584C0.996 0.416 1.204 0.332 1.452 0.332C1.692 0.332 1.896 0.416 2.064 0.584C2.232 0.752 2.316 0.96 2.316 1.208C2.316 1.456 2.232 1.664 2.064 1.832C1.896 2 1.692 2.084 1.452 2.084ZM4.22653 2.084C3.97853 2.084 3.77053 2 3.60253 1.832C3.43453 1.664 3.35053 1.456 3.35053 1.208C3.35053 0.96 3.43453 0.752 3.60253 0.584C3.77053 0.416 3.97853 0.332 4.22653 0.332C4.46653 0.332 4.67053 0.416 4.83853 0.584C5.00653 0.752 5.09053 0.96 5.09053 1.208C5.09053 1.456 5.00653 1.664 4.83853 1.832C4.67053 2 4.46653 2.084 4.22653 2.084ZM7.00106 2.084C6.75306 2.084 6.54506 2 6.37706 1.832C6.20906 1.664 6.12506 1.456 6.12506 1.208C6.12506 0.96 6.20906 0.752 6.37706 0.584C6.54506 0.416 6.75306 0.332 7.00106 0.332C7.24106 0.332 7.44506 0.416 7.61306 0.584C7.78106 0.752 7.86506 0.96 7.86506 1.208C7.86506 1.456 7.78106 1.664 7.61306 1.832C7.44506 2 7.24106 2.084 7.00106 2.084Z" fill="black"/>
</svg>
